HIERARCHY
ROOT Hips
{
    OFFSET 13.132318496704102 78.97530746459961 -18.18548583984375
    CHANNELS 6 Xposition Yposition Zposition Zrotation Xrotation Yrotation
    JOINT RightUpLeg
    {
        OFFSET -13.132318496704102 0.0 0.0
        CHANNELS 3 Zrotation Xrotation Yrotation
        JOINT RightLeg
        {
            OFFSET 0.0 -33.5115966796875 0.0
            CHANNELS 3 Zrotation Xrotation Yrotation
            JOINT RightFoot
            {
                OFFSET 0.0 -45.46371078491211 0.0
                CHANNELS 3 Zrotation Xrotation Yrotation
                End Site
                {
                    OFFSET 0.0 0.0 18.18548583984375
                }
            }
        }
    }
    JOINT LeftUpLeg
    {
        OFFSET 13.132318496704102 0.0 0.0
        CHANNELS 3 Zrotation Xrotation Yrotation
        JOINT LeftLeg
        {
            OFFSET 0.0 -33.5115966796875 0.0
            CHANNELS 3 Zrotation Xrotation Yrotation
            JOINT LeftFoot
            {
                OFFSET 0.0 -45.46371078491211 0.0
                CHANNELS 3 Zrotation Xrotation Yrotation
                End Site
                {
                    OFFSET 0.0 0.0 18.18548583984375
                }
            }
        }
    }
    JOINT Spine
    {
        OFFSET 0.0 22.4312801361084 0.0
        CHANNELS 3 Zrotation Xrotation Yrotation
        JOINT Spine3
        {
            OFFSET 0.0 25.037548065185547 0.0
            CHANNELS 3 Zrotation Xrotation Yrotation
            JOINT Neck
            {
                OFFSET 0.0 10.787965774536133 0.0
                CHANNELS 3 Zrotation Xrotation Yrotation
                End Site
                {
                    OFFSET 0.0 4.315186500549316 0.0
                }
            }
            JOINT LeftArm
            {
                OFFSET 14.44320011138916 0.0 0.0
                CHANNELS 3 Zrotation Xrotation Yrotation
                JOINT LeftForeArm
                {
                    OFFSET 26.857906341552734 0.0 0.0
                    CHANNELS 3 Zrotation Xrotation Yrotation
                    JOINT LeftHand
                    {
                        OFFSET 20.155702590942383 0.0 0.0
                        CHANNELS 3 Zrotation Xrotation Yrotation
                        End Site
                        {
                            OFFSET 8.062280654907227 0.0 0.0
                        }
                    }
                }
            }
            JOINT RightArm
            {
                OFFSET -14.44320011138916 0.0 0.0
                CHANNELS 3 Zrotation Xrotation Yrotation
                JOINT RightForeArm
                {
                    OFFSET -26.857906341552734 0.0 0.0
                    CHANNELS 3 Zrotation Xrotation Yrotation
                    JOINT RightHand
                    {
                        OFFSET -20.155702590942383 0.0 0.0
                        CHANNELS 3 Zrotation Xrotation Yrotation
                        End Site
                        {
                            OFFSET -8.062280654907227 0.0 0.0
                        }
                    }
                }
            }
        }
    }
}
MOTION
Frames: 8
Frame Time: 0.03333333333333333
-0.000169822305906564 73.75859832763672 -0.0008821138180792332 0.4793377323040592 -2.036494624864147 -16.171722985214082 -11.180618460947535 -50.4074847338994 -5.79352796660159 29.454967487704955 73.73456133502896 -23.80467692329163 -1.5902773407317582e-15 -1.9878466759146977e-16 1.9878466759146977e-16 -2.815926196550462 -50.70642700464438 0.6862970857697142 -28.948424406839827 77.78326017403076 27.839608474545408 7.951386703658791e-16 6.896728590703373e-33 9.939233379573488e-16 -1.9242702910170084 28.773107235696415 -0.850725349584085 -3.236704639026958e-07 -1.6220812992143986e-06 -1.6122080177386793 -1.5920803734540339 -8.543815034425911 178.41633309803396 122.21730852619501 -18.214589418112297 -150.88332375526187 -5.3453525913589786e-08 2.137857983046358e-06 100.38536901068575 -3.1805546814635164e-15 0.0 0.0 -123.37325547868417 -20.749208576281774 149.61268380405568 -3.5088812541459835e-06 3.601784225474352e-06 -98.86330308712571 -3.1805546814635168e-15 0.0 0.0
-0.00016166313434951007 73.75859832763672 -0.0008823510142974555 0.8521010817791469 -1.872336325797136 -16.228674157390262 -11.39510336421249 -50.54592513934429 -5.7955602713441055 28.884025367874923 73.91399721939263 -23.289092578695236 7.951386703658792e-16 -5.517382872562698e-33 -7.951386703658792e-16 -3.210503151062409 -50.96744344117287 0.558323678438426 -29.470762714581113 77.81377050341976 28.46575528390317 1.2069275033730902e-33 -9.939233379573489e-17 1.3914926731402884e-15 -1.6975423172659394 28.651180151442222 -1.0649896203613622 9.267712497909995e-08 -9.341240235482467e-07 -1.6565808608388635 -1.701557952438003 -8.887609455174776 177.74849260432012 122.1060825928768 -18.198299757779587 -150.85403707286454 -2.9131415131601814e-06 -6.2573436406727865e-06 100.63003499906131 0.0 0.0 3.1805546814635168e-15 -123.0714437568841 -20.604988155430483 149.64218383059895 -1.6812358083727906e-06 2.5406976289346627e-06 -98.59955739653768 3.1805546814635168e-15 0.0 0.0
-0.00015533287660218775 73.75861358642578 -0.0008755865273997188 1.0639688444136333 -1.7703829580975088 -15.994315511218376 -11.550924483337116 -50.39214943262568 -5.82878146397284 28.570816595947523 73.75947134838181 -22.916588152090043 -7.951386703658791e-16 -3.1805546814635168e-15 3.3793393490549868e-15 -3.4127452429612863 -51.02410685149181 0.47671498777280275 -29.332687362027745 77.74696675285244 28.389459172497936 0.0 9.939233379573489e-17 0.0 -1.28646346844849 28.717571786420542 -1.311549935454063 7.319167244424311e-07 -1.4966807807928164e-06 -1.6271263257729494 -1.2662493860368234 -9.078372951284203 177.51992897167892 121.81780575840246 -17.893693131789817 -150.80426410324827 2.5918508277181714e-06 -3.692978996065057e-07 100.85226648147795 3.1805546814635168e-15 0.0 0.0 -122.92241226781022 -20.103093675027793 149.3457872002623 3.2743654956652036e-06 -9.627361078075432e-08 -98.63175360068139 6.3611093629270335e-15 0.0 0.0
-0.0001430768461432308 73.75860595703125 -0.000860505155287683 1.3653277860843187 -1.480644344836811 -15.901489232866572 -11.621718667574699 -50.72537658314015 -5.80510697948072 28.880365586018016 73.87476580560823 -23.303217880752946 0.0 0.0 -2.5842006786891076e-15 -3.5256174756713303 -51.44662057169229 0.49816653546310014 -30.036938229164427 77.83692027203266 29.08225254567483 -1.0689929315590228e-32 3.0811623476677818e-15 3.975693351829396e-16 -1.0030763794642756 28.508934918304025 -1.503756543398557 3.8478125594348754e-07 1.3509656583269566e-06 -1.689522785845142 -0.9909352007970982 -9.288135980068468 177.0457764376404 121.55630200297585 -17.74934079956569 -150.78013312305214 6.271552108085617e-07 4.264000401303191e-06 101.3381104092971 0.0 0.0 0.0 -122.79713608861368 -20.11158898402707 148.9088517026351 1.7922567342142194e-06 -1.873939851448898e-06 -98.5061199329251 -3.1805546814635168e-15 -1.7655625192200634e-31 6.3611093629270335e-15
-0.00011462143447715789 73.75862121582031 -0.0008710645488463342 1.4831352156847148 -1.461976777832002 -15.937897485033997 -11.496560572811655 -50.93393607846277 -5.7090837746310665 28.45929033045661 74.218389075303 -23.03756311415252 -7.951386703658792e-16 3.1805546814635168e-15 3.975693351829396e-16 -3.5703059142189475 -51.6084913565716 0.47957095149849777 -30.14144465499238 77.94584317675925 29.212157262427624 0.0 0.0 -9.939233379573488e-16 -0.5865704086583383 28.50443372030283 -1.7122032824600222 -2.3056414794027428e-07 -5.267573305665448e-07 -1.7273667556812766 -0.48946242531102185 -9.332768729457909 176.90932687857793 121.64610322390607 -17.752981727327743 -150.91626737425557 -3.512958165717087e-06 5.59540046384463e-06 102.04882176699039 3.1805546814635168e-15 0.0 0.0 -122.96626319398973 -20.11095121778004 148.74777322429102 5.342401910177132e-07 1.463175425063245e-06 -98.86616426549891 0.0 0.0 0.0
-0.00012143832282163203 73.75862121582031 -0.0008806875557638705 1.7433977887889252 -1.3191758318521178 -15.845486682880647 -11.830555240585678 -51.16703643239463 -5.85653902002754 28.921391275284538 74.42613458626451 -23.431765891485128 7.951386703658792e-16 3.1805546814635168e-15 9.93923337957349e-16 -3.9326614308108168 -51.71115902766532 0.32898523658653545 -29.805579319863185 78.07173675667785 29.01028656364507 7.951386703658791e-16 5.517382872562698e-33 7.951386703658791e-16 -0.17337662933090822 28.45886492434465 -1.988448780326662 1.218121936061138e-07 2.6524917187878726e-06 -1.772790734138363 -0.5069412101464337 -9.617466481772249 176.61966040410886 121.70929299773414 -17.757119552329574 -150.7056371987923 4.743996292677241e-06 5.266010665633054e-06 102.00533943095297 3.1805546814635168e-15 -8.827812596100317e-32 -3.1805546814635168e-15 -122.77563450023615 -19.82062513431046 148.58679932696563 1.7912691841395204e-06 1.2353022204866853e-07 -98.9703521959694 -3.1805546814635168e-15 0.0 0.0
-0.00010216580994892865 73.75862884521484 -0.0008831331506371498 1.7507476510023603 -1.236470284550239 -15.860393872700337 -11.765574399698059 -51.40609085917732 -5.9067516788849606 29.618715943783144 74.8262702326025 -24.1532033391265 7.951386703658791e-16 1.9878466759146977e-16 9.939233379573488e-16 -3.7187760905972733 -51.959437803712625 0.41666760206661063 -30.667482132483475 78.24155351536378 29.812443067461214 -5.517382872562698e-33 -3.1805546814635168e-15 -1.987846675914698e-16 0.4582895407081658 28.465506646743158 -2.2415410357185572 -6.439277594604877e-07 -3.064118112495443e-06 -1.7757463081196199 -0.2921540552115304 -10.106217663177501 176.0744305019503 121.8788195554188 -17.973039941795562 -150.2396694196405 2.6684201848376445e-06 -4.834250615283003e-06 101.65401118754957 0.0 0.0 0.0 -123.13802028638675 -19.559653744999085 148.4366068936847 1.7420005748018592e-06 1.7867818217919458e-08 -99.27649230731376 0.0 -6.3611093629270335e-15 0.0
-9.705613774713129e-05 73.75865936279297 -0.0008867560536600649 1.7219951041692267 -1.5360779400003528 -15.91752474487883 -11.67210040765757 -51.17752427676021 -5.754298603092893 30.277589521570366 74.52651436183295 -24.846884516197424 9.827838241752306e-32 2.9817700138720468e-15 -3.776908684237926e-15 -3.531965520805294 -51.89680783136916 0.6241767643300014 -31.259799651295427 78.49830493091639 30.25993763518745 7.951386703658792e-16 9.93923337957349e-17 -7.951386703658792e-16 0.8889480943043196 28.729234762359784 -2.50603870075098 4.65080950046963e-07 2.3489591320672276e-06 -1.8403166603955634 -0.11849635967898682 -9.947073985187528 175.61021294222633 121.7352914915338 -17.403348608888567 -150.24200512459603 -2.032567854855452e-06 3.8001370668229635e-06 101.80654650282948 -6.361109362927033e-15 6.361109362927033e-15 3.531125038440127e-31 -123.44264176171573 -19.563411068232508 148.32566910421775 -1.0287516528126677e-06 -1.9539246881773003e-06 -99.51818520026788 3.1805546814635168e-15 1.7655625192200634e-31 6.3611093629270335e-15
